<svg xmlns="http://www.w3.org/2000/svg" viewBox="0 0 410.83 152.5"><title>Web-page</title><g id="txt"><path d="M83,123.44l-2.33,2.33A7.55,7.55,0,0,1,75.29,128H72l4.53-4.54Z"/><polygon points="76.53 123.44 72 127.98 71.13 127.98 73.29 123.44 76.53 123.44"/><polygon points="86.34 117.05 81.81 121.59 74.18 121.59 76.35 117.05 86.34 117.05"/><polygon points="96.15 110.66 91.61 115.2 77.24 115.2 79.41 110.66 96.15 110.66"/><path d="M102.56,110.66h0L100.23,113a7.55,7.55,0,0,1-5.33,2.21H91.61l4.54-4.54Z"/><path d="M92.75,117.05h0l-2.32,2.32a7.55,7.55,0,0,1-5.33,2.21H81.81l4.53-4.54Z"/><path d="M31.35,123.44l2.33,2.33A7.55,7.55,0,0,0,39,128H42.3l-4.53-4.54Z"/><polygon points="41.29 123.44 43.46 127.98 42.3 127.98 37.77 123.44 41.29 123.44"/><polygon points="38.23 117.05 40.41 121.59 32.49 121.59 27.95 117.05 38.23 117.05"/><polygon points="35.18 110.66 37.35 115.2 22.68 115.2 18.15 110.66 35.18 110.66"/><path d="M11.74,110.66h0L14.06,113a7.58,7.58,0,0,0,5.33,2.21h3.29l-4.53-4.54Z"/><path d="M21.54,117.05h0l2.33,2.32a7.55,7.55,0,0,0,5.33,2.21h3.29L28,117.05Z"/><path d="M57.29,4.36l53.1,15.21V31.78L73.52,108.85l-2.17,4.54-.88,1.85-2.17,4.54-.89,1.85-2.17,4.54-7.95,16.61-7.94-16.61-2.17-4.54-.89-1.85-2.17-4.53-.89-1.86-2.17-4.53L4.19,31.78V19.57L57.29,4.36m0-4.36-.14,0L0,16.41V32.73l37.28,77.93,2.17,4.54.89,1.85,2.17,4.54.88,1.85L45.56,128,57.29,152.5,69,128l2.17-4.54.89-1.85,2.17-4.54.88-1.85,2.17-4.54,37.29-77.93V16.41L57.44,0l-.15,0Z"/><path d="M43.07,22.4c1.67.27,3.76-.46,4.12,2.27a1.59,1.59,0,0,0,2.38,1c1-.46,1.71-1.5,1.13-2.41-1.1-1.7.08-2.6.79-3.76,1,.76,2.45,1.13,1.74,2.93-.26.67.44,1.26,1.14,1.49a1.31,1.31,0,0,0,1.55-.66,1.38,1.38,0,0,0-.24-2c-1.33-.92-1.55-1.67-.21-2.82,1.77-1.5,3.31-1.34,4.43.69.45.81.15,1.4-.64,1.88a1.47,1.47,0,0,0-.58,2.16,1.28,1.28,0,0,0,1.69.75,1.46,1.46,0,0,0,1-2c-.59-1.4.76-1.41,1.26-2,.31-.36.75-.37.89.07.28.85,1.57,1.42.75,2.59a2,2,0,0,0,0,2.54c.9,1.18,2.83,1.08,3.11-.35.48-2.55,2.37-2.14,4.42-2.75a38.73,38.73,0,0,0-2.17,5.08c-.6,2.22-3.28.86-4.37,2.89,3.45-.56,6.55-1,9.61-1.59,1.5-.3,1.88.06,1.66,1.53-.47,3.1.07,6.52-3.25,8.73,3.61-.76,7-.28,11.13-.2C81.79,41.05,81,44.79,76.81,45l10.47,2c-4.17,3.72-3,8-2.06,12.32.21,1,.33,1.95.52,3.1-1.82-.84-2.34-3.11-4.63-3.52,1.57,2.5,3,4.79,4.44,7.05a1.86,1.86,0,0,1,.19,2.26C83.5,72,81.36,75.82,79,80c-1-3.06-2-5.79-2.92-8.52l-.43.08c0,3.84-.06,7.68,0,11.52a5.34,5.34,0,0,1-1.26,3.75C72.65,89,71,91.17,69,93.83V86.34l-.58-.12c-.51,1.54-1.14,3-1.51,4.62a17.85,17.85,0,0,1-5.87,9.5c-3.82,3.37-3.55,3.37-7.29.09a18,18,0,0,1-6-9.67,14.56,14.56,0,0,0-1.88-4.43v6.82l-.54.22a52,52,0,0,0-4.5-5.76c-2.11-2.08-1.77-4.55-1.78-7a73.58,73.58,0,0,0-.41-9.07L35.69,80c-2.45-4.31-4.7-8.3-7-12.27-.47-.82.1-1.28.44-1.83,1.47-2.39,3-4.77,4.72-7.61-2.34,1-3.12,3-5,4.25.49-2.88.78-5.49,1.41-8a5.11,5.11,0,0,0-1.36-5.37A17.5,17.5,0,0,1,27.3,47L37.36,45c-3.86-.39-4.33-4.28-7.25-6.43a39.89,39.89,0,0,1,11.25.06c-3.26-2.24-2.81-5.66-3.27-8.81-.24-1.66.43-1.7,1.75-1.44,2.69.54,5.41.91,8.11,1.4.39.07.71.3.75-.31,0-.32,0-.7-.39-.7C43.94,28.77,44.73,24.61,43.07,22.4ZM64.81,48.18c2.16.06,3.15,1.33,4.32,2.67a6.11,6.11,0,0,0-.92-4.38c-.22-.41-.84-.71-.34-1.36,1-1.37.35-2.63-.31-4.33-1.42,2.88-4.58,1.67-6.47,3.77a6.1,6.1,0,0,0-.8-3c-.56-.92.23-1.32.91-1,1.37.68,2.46,0,3.59-.48.79-.3,1.58-.85,1.45-1.83a2.06,2.06,0,0,0-1.84-1.78c-2.43-.44-4.84.5-7.09.47s-4.67-.91-7.1-.46a2,2,0,0,0-1.78,1.82c-.08,1,.75,1.38,1.47,1.84,1.45.91,3.05.59,4.72.52-.31,1.45-1.36,2.36-1.44,3.74C52.46,43,51.1,43.22,50,43c-1.23-.29-2.13-1.06-3.56-2.34.44,3.9-.38,7.1-1.11,10.34,1.18-1.45,2.23-2.72,4.21-2.73-.05,1.82-2.6,2.92-1,4.92a1.52,1.52,0,0,0-.35.26,1.71,1.71,0,0,0,.59,2.78A6,6,0,0,0,56,51.82c.33-1.68-.05-2.83-1.93-3.19-.46-.09-1.43.28-1.32-.77.09-.75.25-1.51,1.15-1.8a10.77,10.77,0,0,1,7,0c.88.3,1,1.1,1,1.85.06.9-.76.58-1.18.65-2.18.36-2.43,1.77-2,3.55a6,6,0,0,0,6.79,4.11c.37-.07.83,0,.91-.5a9.69,9.69,0,0,0-.19-4.9A21.35,21.35,0,0,0,64.81,48.18ZM57.7,61.82A5.55,5.55,0,0,0,62.54,59c.48-.86.73-1.66-.77-1.92a6.29,6.29,0,0,1-3.56-2.33c-.64-.75-1-.87-1.73,0a6.54,6.54,0,0,1-3.76,2.42c-1.19.21-1,.85-.73,1.64C52.68,60.53,55,61.85,57.7,61.82Zm-3.4-31.3c1.83-1.29,3.72-1.7,5.73-.34C57.37,26.5,57.41,26.33,54.3,30.52Zm-7.78,5.55c.5-.63.91-1.13.64-1.92-.61-1.73-4-3.07-5.56-2.22a.57.57,0,0,0-.3.73c.13.66.45.46,1,.31,1.74-.51,3.1-.12,3.62,1.88A6.86,6.86,0,0,0,46.52,36.07Zm21.65,0c1-1.84,1.4-4.3,4.29-3,.34.15.41-.05.42-.21s-.07-.78-.17-.8c-1.34-.25-2.86-.59-3.9.37S66.62,34.36,68.17,36.09Z"/><path d="M164.73,54.44l-6.09,15h-5.95l18.18-42.45,7-.83,17.43,43.28H185.7l-5.77-15Zm13.75-4.63-5.64-15h-.32l-6,15Z"/><path d="M207.88,57.23c0,3.8.76,7,4.37,7,4.69,0,7.35-4.69,7.35-10.46V39h7.86V69.39H220l-.38-6.65h-.19c-1.71,3.61-5.2,7.22-10.26,7.22s-9.19-1.71-9.19-11V39h7.92Z"/><path d="M248.24,65.65a8.55,8.55,0,0,0,4.44-1.33l-.26,3.49a11.07,11.07,0,0,1-6.78,2.09c-5.45,0-8-2.22-8-8.3V43h-4.12V39h4.12V31.44l7.79-.83V39h7.35L252.36,43h-7V60.52C245.39,63.88,246,65.65,248.24,65.65Z"/><path d="M287.78,54c0,10.84-7.92,16-15.46,16s-15.65-5.2-15.65-16,8-15.65,15.65-15.65S287.78,43.29,287.78,54Zm-8.11,0c0-7.22-3-11.59-7.42-11.59s-7.41,4.37-7.41,11.59c0,7.42,3,12,7.41,12S279.67,61.41,279.67,54Z"/><path d="M306.34,42c-2,0-4.3.82-4.3,3.48,0,2.22,1.14,3.11,5.06,5.33,4.69,2.66,7.42,5.25,7.42,10,0,6.14-5.26,9.19-11.47,9.19a14.93,14.93,0,0,1-9.19-3L293,61.22h.82a11.87,11.87,0,0,0,8.94,4.62,4,4,0,0,0,4.3-4.12c0-2.53-2.09-4-6.84-6.65-4.18-2.28-5.51-4.62-5.51-8.24,0-5.64,5.38-8.49,10.71-8.49a12.59,12.59,0,0,1,6.9,1.65l.57,4.37h-.76A7.87,7.87,0,0,0,306.34,42Z"/><path d="M178.67,86.53c-9.51,0-16.6,6.65-16.6,17.68,0,10.83,7.16,16.79,16.22,16.79,5.76,0,10.52-1.59,13.49-4.18h.95L191,123a27.07,27.07,0,0,1-13.62,3.42c-13.44,0-24.65-7.41-24.65-22.24,0-15,12-22.49,25-22.49,4.31,0,9.7,1.08,13,3.23l.51,5.7h-1A16.5,16.5,0,0,0,178.67,86.53Z"/><path d="M205.28,110.61l-6.08,15h-6l18.19-42.45,7-.83,17.42,43.28h-9.57l-5.76-15ZM219,106l-5.64-15h-.32l-6,15Z"/><path d="M265.92,110.86l13.62-28.39h8.37l4.56,43.09h-8.81l-3.17-33h-.25L265.35,123h-3L247.54,92.67h-.25l-2.72,32.89h-5.64l4.62-43.09h8.3l13.88,28.39Z"/><path d="M309.77,125.56h-8.68V82.47h8.68Z"/><path d="M351.08,82.47h5.45v43.28h-4.69L326.3,93.94H326l.13,31.62h-5.45V82.47H328L351,111.3h.26Z"/><path d="M410.83,104c0,15.14-11.47,22.36-22.43,22.36-11.4,0-23-6.84-23-22.36,0-15.15,11.53-22.31,22.62-22.31C399.3,81.71,410.83,88.49,410.83,104Zm-9.31-.07c0-9.57-5.26-17.68-13.63-17.68-8,0-13.18,7.67-13.18,17.68,0,9.63,5.2,17.68,13.63,17.68C396.39,121.63,401.52,114,401.52,104Z"/><path d="M352.74,58.33c0,7-5,11.06-12.51,11.06h-8.29V47.19h8.78C348.33,47.19,352.74,50.91,352.74,58.33Zm-4.77,0c0-5.59-2.48-8.72-8.06-8.72h-3.56V66.94h3.39C345.29,66.94,348,63.71,348,58.33Z"/><path d="M360.31,61.36c.1,3.33,1.86,6,5.29,6A5.71,5.71,0,0,0,370,65.57h.39l-.56,2.71a8.55,8.55,0,0,1-5.25,1.44c-5.13,0-8.39-2.91-8.39-8.1s3.75-8.22,7.67-8.22c4.6,0,6.69,2.64,6.69,6.69v1.27Zm3.62-6.14c-1.86,0-3.42,1.67-3.59,4.31h6.53v-.32C366.87,56.79,365.79,55.22,363.93,55.22Z"/><path d="M374.54,46.25l4.12-.43V69.39h-4.12Z"/></g></svg>